<svg xmlns="http://www.w3.org/2000/svg" viewBox="0 0 100 100" width="512" height="512">
  <defs>
    <linearGradient id="shieldGradient" x1="0%" y1="0%" x2="100%" y2="100%">
      <stop offset="0%" style="stop-color:#fbc02d;stop-opacity:1" />
      <stop offset="100%" style="stop-color:#ffeb3b;stop-opacity:1" />
    </linearGradient>
    <filter id="dropShadow" x="-20%" y="-20%" width="140%" height="140%">
      <feGaussianBlur in="SourceAlpha" stdDeviation="3"/>
      <feOffset dx="2" dy="2" result="offsetblur"/>
      <feMerge>
        <feMergeNode/>
        <feMergeNode in="SourceGraphic"/>
      </feMerge>
    </filter>
  </defs>
  <g filter="url(#dropShadow)">
    <path d="M 50,2 C 25,2 10,25 10,50 L 10,90 L 50,98 L 90,90 L 90,50 C 90,25 75,2 50,2 z" fill="url(#shieldGradient)"/>
    <path d="M 50,7 C 30,7 15,30 15,50 L 15,87 L 50,93 L 85,87 L 85,50 C 85,30 70,7 50,7 z" fill="#1a1a1a"/>
    <path d="M 40,25 L 60,25 L 45,45 L 65,65 L 45,65 L 30,50 L 40,40 L 40,25 M 40,75 L 60,75 L 40,55" fill="#ffeb3b"/>
  </g>
</svg>